<mxfile host="65bd71144e">
    <diagram id="mirI_3F4e9JGB5DZtd2R" name="Page-1">
        <mxGraphModel dx="2837" dy="872" grid="1" gridSize="10" guides="1" tooltips="1" connect="1" arrows="1" fold="1" page="1" pageScale="1" pageWidth="827" pageHeight="1169" math="0" shadow="0">
            <root>
                <mxCell id="0"/>
                <mxCell id="1" parent="0"/>
                <mxCell id="2" value="Lemonade Stand" style="strokeWidth=1;shadow=0;dashed=0;align=center;html=1;shape=mxgraph.mockup.containers.window;align=left;verticalAlign=top;spacingLeft=8;strokeColor2=#008cff;strokeColor3=#c4c4c4;fontColor=#666666;mainText=;fontSize=17;labelBackgroundColor=none;whiteSpace=wrap;" vertex="1" parent="1">
                    <mxGeometry x="-190" y="80" width="410" height="620" as="geometry"/>
                </mxCell>
                <mxCell id="3" value="&lt;font face=&quot;Open Sans&quot;&gt;Still Water&lt;/font&gt;" style="strokeWidth=1;shadow=0;dashed=0;align=center;html=1;shape=mxgraph.mockup.buttons.button;strokeColor=#666666;fontColor=#ffffff;mainText=;buttonStyle=round;fontSize=17;fontStyle=1;fillColor=#008cff;whiteSpace=wrap;" vertex="1" parent="1">
                    <mxGeometry x="-175.74" y="402.5" width="120" height="40" as="geometry"/>
                </mxCell>
                <mxCell id="4" value="&lt;font face=&quot;Open Sans&quot;&gt;Medium&lt;/font&gt;&lt;div&gt;&lt;font face=&quot;Open Sans&quot;&gt;$5&lt;/font&gt;&lt;/div&gt;" style="strokeWidth=1;shadow=0;dashed=0;align=center;html=1;shape=mxgraph.mockup.buttons.button;strokeColor=#666666;fontColor=#ffffff;mainText=;buttonStyle=round;fontSize=17;fontStyle=1;fillColor=#008cff;whiteSpace=wrap;" vertex="1" parent="1">
                    <mxGeometry x="-32.69" y="270" width="102.69" height="50" as="geometry"/>
                </mxCell>
                <mxCell id="5" value="&lt;font face=&quot;Open Sans&quot;&gt;Small&lt;/font&gt;&lt;div&gt;&lt;font face=&quot;Open Sans&quot;&gt;$2.50&lt;/font&gt;&lt;/div&gt;" style="strokeWidth=1;shadow=0;dashed=0;align=center;html=1;shape=mxgraph.mockup.buttons.button;strokeColor=#666666;fontColor=#ffffff;mainText=;buttonStyle=round;fontSize=17;fontStyle=1;fillColor=#008cff;whiteSpace=wrap;" vertex="1" parent="1">
                    <mxGeometry x="-169.37" y="270" width="107.25" height="50" as="geometry"/>
                </mxCell>
                <mxCell id="6" value="&lt;font face=&quot;Open Sans&quot;&gt;Large&lt;/font&gt;&lt;div&gt;&lt;font face=&quot;Open Sans&quot;&gt;$8&lt;/font&gt;&lt;/div&gt;" style="strokeWidth=1;shadow=0;dashed=0;align=center;html=1;shape=mxgraph.mockup.buttons.button;strokeColor=#666666;fontColor=#ffffff;mainText=;buttonStyle=round;fontSize=17;fontStyle=1;fillColor=#008cff;whiteSpace=wrap;" vertex="1" parent="1">
                    <mxGeometry x="96" y="270" width="104" height="50" as="geometry"/>
                </mxCell>
                <mxCell id="7" value="&lt;font face=&quot;Open Sans&quot;&gt;No Ice&lt;/font&gt;" style="strokeWidth=1;shadow=0;dashed=0;align=center;html=1;shape=mxgraph.mockup.buttons.button;strokeColor=#666666;fontColor=#ffffff;mainText=;buttonStyle=round;fontSize=17;fontStyle=1;fillColor=#008cff;whiteSpace=wrap;" vertex="1" parent="1">
                    <mxGeometry x="-70" y="525" width="86.5" height="40" as="geometry"/>
                </mxCell>
                <mxCell id="8" value="&lt;font face=&quot;Open Sans&quot;&gt;Zesty Lemonade&lt;/font&gt;" style="strokeWidth=1;shadow=0;dashed=0;align=center;html=1;shape=mxgraph.mockup.buttons.button;strokeColor=#666666;fontColor=#ffffff;mainText=;buttonStyle=round;fontSize=17;fontStyle=1;fillColor=#008cff;whiteSpace=wrap;" vertex="1" parent="1">
                    <mxGeometry x="-175.74" y="350" width="120" height="40" as="geometry"/>
                </mxCell>
                <mxCell id="9" value="&lt;font face=&quot;Open Sans&quot; style=&quot;font-size: 14px;&quot;&gt;Pinkity Drinkity Lemonade&lt;/font&gt;" style="strokeWidth=1;shadow=0;dashed=0;align=center;html=1;shape=mxgraph.mockup.buttons.button;strokeColor=#666666;fontColor=#ffffff;mainText=;buttonStyle=round;fontSize=17;fontStyle=1;fillColor=#008cff;whiteSpace=wrap;" vertex="1" parent="1">
                    <mxGeometry x="-175.74" y="460" width="120" height="40" as="geometry"/>
                </mxCell>
                <mxCell id="10" value="" style="shape=ext;double=1;rounded=0;whiteSpace=wrap;html=1;" vertex="1" parent="1">
                    <mxGeometry x="-150.75" y="130" width="320.75" height="120" as="geometry"/>
                </mxCell>
                <mxCell id="11" value="&lt;font face=&quot;Open Sans&quot; style=&quot;font-size: 24px;&quot;&gt;Welcome to...&lt;/font&gt;&lt;div&gt;&lt;font face=&quot;Open Sans&quot; style=&quot;font-size: 24px;&quot;&gt;Zaddy Z&#39;s Lemonade Stand&lt;/font&gt;&lt;/div&gt;" style="text;html=1;align=center;verticalAlign=middle;resizable=0;points=[];autosize=1;strokeColor=none;fillColor=none;" vertex="1" parent="1">
                    <mxGeometry x="-130" y="155" width="290" height="70" as="geometry"/>
                </mxCell>
                <mxCell id="12" value="&lt;font face=&quot;Open Sans&quot;&gt;Extra Sugar&lt;/font&gt;" style="strokeWidth=1;shadow=0;dashed=0;align=center;html=1;shape=mxgraph.mockup.buttons.button;strokeColor=#666666;fontColor=#ffffff;mainText=;buttonStyle=round;fontSize=17;fontStyle=1;fillColor=#008cff;whiteSpace=wrap;" vertex="1" parent="1">
                    <mxGeometry x="30" y="520" width="180" height="110" as="geometry"/>
                </mxCell>
                <mxCell id="13" value="&lt;font face=&quot;Open Sans&quot;&gt;No Sugar&lt;/font&gt;" style="strokeWidth=1;shadow=0;dashed=0;align=center;html=1;shape=mxgraph.mockup.buttons.button;strokeColor=#666666;fontColor=#ffffff;mainText=;buttonStyle=round;fontSize=17;fontStyle=1;fillColor=#008cff;whiteSpace=wrap;" vertex="1" parent="1">
                    <mxGeometry x="-169.37" y="525" width="86" height="40" as="geometry"/>
                </mxCell>
                <mxCell id="14" value="" style="shape=ext;double=1;rounded=0;whiteSpace=wrap;html=1;" vertex="1" parent="1">
                    <mxGeometry x="40" y="637.5" width="170" height="55" as="geometry"/>
                </mxCell>
                <mxCell id="15" value="&lt;font style=&quot;font-size: 24px;&quot; face=&quot;Open Sans&quot;&gt;TOTAL:&lt;/font&gt;" style="text;html=1;align=center;verticalAlign=middle;resizable=0;points=[];autosize=1;strokeColor=none;fillColor=none;" vertex="1" parent="1">
                    <mxGeometry x="40" y="645" width="110" height="40" as="geometry"/>
                </mxCell>
                <mxCell id="16" value="&lt;font face=&quot;Open Sans&quot;&gt;+&lt;/font&gt;" style="strokeWidth=1;shadow=0;dashed=0;align=center;html=1;shape=mxgraph.mockup.buttons.button;strokeColor=#666666;fontColor=#ffffff;mainText=;buttonStyle=round;fontSize=17;fontStyle=1;fillColor=#008cff;whiteSpace=wrap;" vertex="1" parent="1">
                    <mxGeometry x="-169.87" y="635" width="86.5" height="40" as="geometry"/>
                </mxCell>
                <mxCell id="17" value="&lt;font face=&quot;Open Sans&quot;&gt;-&lt;/font&gt;" style="strokeWidth=1;shadow=0;dashed=0;align=center;html=1;shape=mxgraph.mockup.buttons.button;strokeColor=#666666;fontColor=#ffffff;mainText=;buttonStyle=round;fontSize=17;fontStyle=1;fillColor=#008cff;whiteSpace=wrap;" vertex="1" parent="1">
                    <mxGeometry x="-70" y="630" width="86.5" height="45" as="geometry"/>
                </mxCell>
                <mxCell id="18" value="" style="shape=ext;double=1;rounded=0;whiteSpace=wrap;html=1;" vertex="1" parent="1">
                    <mxGeometry x="-162.12" y="580" width="170" height="40" as="geometry"/>
                </mxCell>
                <mxCell id="19" value="&lt;font style=&quot;font-size: 18px;&quot;&gt;Quantity:&lt;/font&gt;" style="text;html=1;align=center;verticalAlign=middle;resizable=0;points=[];autosize=1;strokeColor=none;fillColor=none;" vertex="1" parent="1">
                    <mxGeometry x="-162.12" y="580" width="100" height="40" as="geometry"/>
                </mxCell>
                <mxCell id="20" value="" style="endArrow=none;dashed=1;html=1;strokeColor=#FF0F0F;" edge="1" parent="1">
                    <mxGeometry width="50" height="50" relative="1" as="geometry">
                        <mxPoint x="-50" y="740" as="sourcePoint"/>
                        <mxPoint x="-50" y="40" as="targetPoint"/>
                        <Array as="points">
                            <mxPoint x="-50" y="250"/>
                        </Array>
                    </mxGeometry>
                </mxCell>
                <mxCell id="21" value="" style="endArrow=none;dashed=1;html=1;strokeColor=#FF0F0F;" edge="1" parent="1">
                    <mxGeometry width="50" height="50" relative="1" as="geometry">
                        <mxPoint x="80" y="740" as="sourcePoint"/>
                        <mxPoint x="80" y="40" as="targetPoint"/>
                        <Array as="points">
                            <mxPoint x="80" y="250"/>
                        </Array>
                    </mxGeometry>
                </mxCell>
                <mxCell id="22" value="" style="endArrow=none;dashed=1;html=1;strokeColor=#FF0F0F;" edge="1" parent="1">
                    <mxGeometry width="50" height="50" relative="1" as="geometry">
                        <mxPoint x="280" y="260" as="sourcePoint"/>
                        <mxPoint x="-240" y="260" as="targetPoint"/>
                        <Array as="points">
                            <mxPoint x="-15.370000000000005" y="260"/>
                        </Array>
                    </mxGeometry>
                </mxCell>
                <mxCell id="23" value="" style="endArrow=none;dashed=1;html=1;strokeColor=#FF0F0F;" edge="1" parent="1">
                    <mxGeometry width="50" height="50" relative="1" as="geometry">
                        <mxPoint x="278.65" y="330" as="sourcePoint"/>
                        <mxPoint x="-241.35" y="330" as="targetPoint"/>
                        <Array as="points">
                            <mxPoint x="-16.720000000000006" y="330"/>
                        </Array>
                    </mxGeometry>
                </mxCell>
                <mxCell id="24" value="" style="endArrow=none;dashed=1;html=1;strokeColor=#FF0F0F;" edge="1" parent="1">
                    <mxGeometry width="50" height="50" relative="1" as="geometry">
                        <mxPoint x="275" y="574.5" as="sourcePoint"/>
                        <mxPoint x="-245" y="574.5" as="targetPoint"/>
                        <Array as="points">
                            <mxPoint x="-20.370000000000005" y="574.5"/>
                        </Array>
                    </mxGeometry>
                </mxCell>
                <mxCell id="25" value="" style="endArrow=none;dashed=1;html=1;strokeColor=#FF0F0F;" edge="1" parent="1">
                    <mxGeometry width="50" height="50" relative="1" as="geometry">
                        <mxPoint x="269.63" y="514" as="sourcePoint"/>
                        <mxPoint x="-250.37" y="514" as="targetPoint"/>
                        <Array as="points">
                            <mxPoint x="-25.740000000000002" y="514"/>
                        </Array>
                    </mxGeometry>
                </mxCell>
                <mxCell id="26" value="row = 0" style="text;html=1;align=center;verticalAlign=middle;resizable=0;points=[];autosize=1;strokeColor=none;fillColor=none;" vertex="1" parent="1">
                    <mxGeometry x="250" y="175" width="60" height="30" as="geometry"/>
                </mxCell>
                <mxCell id="27" value="&lt;span style=&quot;color: rgb(0, 0, 0); font-family: Helvetica; font-size: 12px; font-style: normal; font-variant-ligatures: normal; font-variant-caps: normal; font-weight: 400; letter-spacing: normal; orphans: 2; text-align: center; text-indent: 0px; text-transform: none; widows: 2; word-spacing: 0px; -webkit-text-stroke-width: 0px; white-space: nowrap; background-color: rgb(251, 251, 251); text-decoration-thickness: initial; text-decoration-style: initial; text-decoration-color: initial; display: inline !important; float: none;&quot;&gt;row = 1&lt;/span&gt;" style="text;whiteSpace=wrap;html=1;" vertex="1" parent="1">
                    <mxGeometry x="260" y="275" width="70" height="40" as="geometry"/>
                </mxCell>
                <mxCell id="28" value="&lt;span style=&quot;color: rgb(0, 0, 0); font-family: Helvetica; font-size: 12px; font-style: normal; font-variant-ligatures: normal; font-variant-caps: normal; font-weight: 400; letter-spacing: normal; orphans: 2; text-align: center; text-indent: 0px; text-transform: none; widows: 2; word-spacing: 0px; -webkit-text-stroke-width: 0px; white-space: nowrap; background-color: rgb(251, 251, 251); text-decoration-thickness: initial; text-decoration-style: initial; text-decoration-color: initial; display: inline !important; float: none;&quot;&gt;row = 2&lt;/span&gt;" style="text;whiteSpace=wrap;html=1;" vertex="1" parent="1">
                    <mxGeometry x="260" y="402.5" width="70" height="40" as="geometry"/>
                </mxCell>
                <mxCell id="29" value="&lt;span style=&quot;color: rgb(0, 0, 0); font-family: Helvetica; font-size: 12px; font-style: normal; font-variant-ligatures: normal; font-variant-caps: normal; font-weight: 400; letter-spacing: normal; orphans: 2; text-align: center; text-indent: 0px; text-transform: none; widows: 2; word-spacing: 0px; -webkit-text-stroke-width: 0px; white-space: nowrap; background-color: rgb(251, 251, 251); text-decoration-thickness: initial; text-decoration-style: initial; text-decoration-color: initial; display: inline !important; float: none;&quot;&gt;row = 3&lt;/span&gt;" style="text;whiteSpace=wrap;html=1;" vertex="1" parent="1">
                    <mxGeometry x="260" y="530" width="70" height="40" as="geometry"/>
                </mxCell>
                <mxCell id="30" value="&lt;span style=&quot;color: rgb(0, 0, 0); font-family: Helvetica; font-size: 12px; font-style: normal; font-variant-ligatures: normal; font-variant-caps: normal; font-weight: 400; letter-spacing: normal; orphans: 2; text-align: center; text-indent: 0px; text-transform: none; widows: 2; word-spacing: 0px; -webkit-text-stroke-width: 0px; white-space: nowrap; background-color: rgb(251, 251, 251); text-decoration-thickness: initial; text-decoration-style: initial; text-decoration-color: initial; display: inline !important; float: none;&quot;&gt;row = 4&lt;/span&gt;" style="text;whiteSpace=wrap;html=1;" vertex="1" parent="1">
                    <mxGeometry x="260" y="630" width="70" height="40" as="geometry"/>
                </mxCell>
                <mxCell id="31" value="&lt;span style=&quot;color: rgb(0, 0, 0); font-family: Helvetica; font-size: 12px; font-style: normal; font-variant-ligatures: normal; font-variant-caps: normal; font-weight: 400; letter-spacing: normal; orphans: 2; text-align: center; text-indent: 0px; text-transform: none; widows: 2; word-spacing: 0px; -webkit-text-stroke-width: 0px; white-space: nowrap; background-color: rgb(251, 251, 251); text-decoration-thickness: initial; text-decoration-style: initial; text-decoration-color: initial; display: inline !important; float: none;&quot;&gt;column = 2&lt;/span&gt;" style="text;whiteSpace=wrap;html=1;" vertex="1" parent="1">
                    <mxGeometry x="120" y="710" width="70" height="40" as="geometry"/>
                </mxCell>
                <mxCell id="32" value="&lt;span style=&quot;color: rgb(0, 0, 0); font-family: Helvetica; font-size: 12px; font-style: normal; font-variant-ligatures: normal; font-variant-caps: normal; font-weight: 400; letter-spacing: normal; orphans: 2; text-align: center; text-indent: 0px; text-transform: none; widows: 2; word-spacing: 0px; -webkit-text-stroke-width: 0px; white-space: nowrap; background-color: rgb(251, 251, 251); text-decoration-thickness: initial; text-decoration-style: initial; text-decoration-color: initial; display: inline !important; float: none;&quot;&gt;column = 1&lt;/span&gt;" style="text;whiteSpace=wrap;html=1;" vertex="1" parent="1">
                    <mxGeometry x="-16.350000000000023" y="710" width="70" height="40" as="geometry"/>
                </mxCell>
                <mxCell id="33" value="&lt;span style=&quot;color: rgb(0, 0, 0); font-family: Helvetica; font-size: 12px; font-style: normal; font-variant-ligatures: normal; font-variant-caps: normal; font-weight: 400; letter-spacing: normal; orphans: 2; text-align: center; text-indent: 0px; text-transform: none; widows: 2; word-spacing: 0px; -webkit-text-stroke-width: 0px; white-space: nowrap; background-color: rgb(251, 251, 251); text-decoration-thickness: initial; text-decoration-style: initial; text-decoration-color: initial; display: inline !important; float: none;&quot;&gt;column = 0&lt;/span&gt;" style="text;whiteSpace=wrap;html=1;" vertex="1" parent="1">
                    <mxGeometry x="-150.74" y="710" width="70" height="40" as="geometry"/>
                </mxCell>
                <mxCell id="34" value="" style="endArrow=classic;html=1;" edge="1" parent="1">
                    <mxGeometry width="50" height="50" relative="1" as="geometry">
                        <mxPoint x="290" y="750" as="sourcePoint"/>
                        <mxPoint x="200" y="610" as="targetPoint"/>
                    </mxGeometry>
                </mxCell>
                <mxCell id="35" value="Button" style="text;html=1;align=center;verticalAlign=middle;resizable=0;points=[];autosize=1;strokeColor=none;fillColor=none;" vertex="1" parent="1">
                    <mxGeometry x="290" y="748" width="60" height="30" as="geometry"/>
                </mxCell>
                <mxCell id="36" value="Label" style="text;html=1;align=center;verticalAlign=middle;resizable=0;points=[];autosize=1;strokeColor=none;fillColor=none;" vertex="1" parent="1">
                    <mxGeometry x="260" y="120" width="50" height="30" as="geometry"/>
                </mxCell>
                <mxCell id="37" value="" style="endArrow=classic;html=1;exitX=0.22;exitY=1;exitDx=0;exitDy=0;exitPerimeter=0;" edge="1" parent="1" source="36">
                    <mxGeometry width="50" height="50" relative="1" as="geometry">
                        <mxPoint x="110" y="280" as="sourcePoint"/>
                        <mxPoint x="160" y="230" as="targetPoint"/>
                    </mxGeometry>
                </mxCell>
                <mxCell id="38" value="" style="shape=image;verticalLabelPosition=bottom;labelBackgroundColor=default;verticalAlign=top;aspect=fixed;imageAspect=0;image=data:image/jpeg,/9j/4AAQSkZJRgABAQAAAQABAAD/2wCEAAkGBxITEhUSExMVFhUVGBYYFRcXFxUWFRUVFxUWFxYXFhcYHSggGBolGxUVITEhJSkrLi4uFx8zODMsNygtLisBCgoKDg0OGhAQGy0mICUtLS0vLS0tLS0tLS0vLS0vLS0tLS0rLS0tLS0rLS0tLS0tLS0tLS0tLS0vLS0tLSstLf/AABEIALcBEwMBIgACEQEDEQH/xAAcAAACAwEBAQEAAAAAAAAAAAAEBQIDBgABBwj/xAA8EAABAwIEAwYEAwgCAgMAAAABAAIRAyEEBRIxQVFhBhMicYGRobHB8DLR4RQjQlJicoLxFTMHQ2OSov/EABsBAAIDAQEBAAAAAAAAAAAAAAECAAMEBQYH/8QALxEAAgIBAwMCBAYCAwAAAAAAAAECEQMSITEEE0EiUWFxkfAUMoGhsdEF8RXB4f/aAAwDAQACEQMRAD8A+ksXKLF0r5pKGx0kyxqtBVEr1hUhGmRssCrrFXgKJartFbFeoEchqpKZPphB4ulZWJNA1AT0LXYrDUQ9V5Vz06RWFtPh9EoqtTNtTw+iS16ysq6K2DVyhHFSq1EFWcVqgiMPbUEK/AiAT1Koy/CueEw/Yixi2xg6sraE2JqeM+asp02lLsQ7xu81OhVSSj7FbCnYZsoDH0RwRrXElU4+kYQSfkUDwz+CDzCAZCFqYogkId1cu3K0wxtOyUOspcS0mDuhqzdT3enyT/IHaaDAORJ9XGfvoiMwydr5ewQ/e2zvoCqH10VkcJKt6sDn4MzRZpcE2LNQsgmtvB3BunuEpy2wla3kS3YuoVswcXKErWcEbi6xa4gpPUxEvhX3qjaLeR9hcfA3TfDYqWrKllrJhgnlrBKpnDcKiWvqy8zzTPCvA3akNDEjXO91o2YtmkWjmsHVQlOo1sJVMHrwXKfdkkQraha5q8y03hL00e4nD2YGrD2ULLkYNK5dT8ND2G1RHTai7WhGPXpK8Y0zpINDlNhVFIq0IxiK2Xuqqo1wqKz0MAU0mAP79RNUFLa9WFWysU0GxGg19FqqqNaOSprVkJWrK26EdhFV7YgJBj6DhwRffXCOdpIVkZ+4t0ZMoTEEp1m2Hi4So05ErbjprYloYZNjNNjunzsQHNWCZi3B0Rsn+CxOpi2Y5OInDFeOpgvJA4lRpU7wmv7JILkuYPGrVHVIlJntRhYJCT4rNTq0kJ/jnjQsRjK3jKvlgiRxRdiW6rqqnh3KtuJI2E+V17/yJFuPLiilQKia7s//ANbWk7T8ST+a0tBwInYgX6X2WQyauRoJ4gT6/qtZl7xJbxIH35fquB/k8Wmbl4e/9lORVLYUZvlv75pbYVJLuQIPid7EI2ue7YItYgDgI4n4mUtzDHH9tawEaTAPkASfL9Ci6jTVdMQ1sgTxvMnoeXQJW5yjCM3tVld2KcUQ4/Ly4JWyiO8WlOSgyXVHczAA6kyZWexwpCoG0nOdE6nGIJ4BsAe66/T9RCVQhul8C+LSCa5AFldhKssVD6EslWUqcM9Fu2e5emqBGuAM9UVSxxcQ3gs/VxBBR+V1rpJYot2D0mnFcgQisGLaiqsHRDkXi6JayyWGJJ2irIlWwLVzYAkTsuSOphCSTK8WqjGfQnYhX0K6AfsupVV4dKzt2PaNVdVxCWMxCjUrKOLFCqte6k2vZKaldeDEKKIWMXEFRIhAMxCsOJTpUVsuqgoRwKtp4lQr1wroR2EbAK1ipNxloQdatJXNYJTxjS3Aw59bU2ELSo3LUXQphEVKLRdaccaK7oWvywLqeCgKWIzENMFFU8QHBaU5eRXL2B2MMQgjRuUybW4KitC0YsqTIp1yKMd+GJRPY/B4cXfh2PqHV46je8DXSdI0GWi0XhB16R1zwRjcR3EVGETxabtd0cPsrV3laDKV8Guyo1Q2pTOpj6bhBHhBYdrH81NrKtV5Y/RUZJDhVaHN26q/s9mrcXRFR7QHd4SYdqPhJgO2tBiOULQYZjG6nBhlxkw0kei0NJ7pipWZrG9isI8W/dH/AON0Nj+1wIb6JDn2XOoOik+dADmhxa4lpEGbATINx6r6G/Fngx//ANXfks72twBrMD2y148J1AtBYTMSdr/MrB1sFkh6eV9seULRgu9xD3AGg4CZMUzfqTCfZZga1Z2ltMtFpc7wgfn6IzIOz0HU+sQBHhpukkjjI2C2dNzQIE+sn4lYsfQxyU3she0jIZ52IrvbFKsxwi7DLNR6m834GAvmOYZTXpVSx9KoHNN/CT7EWI6hfoFrkh7SVgI7uA6b2LZ9SF09OOEUlUUPovg+QNrujS4EHkRB+KYYgRTJ6fRF9qsPWNSm6pfw2MzbVcehn3QeZ2pnyVirhEi9qM0acpjgGgG6opRCtUyIEuDY5PU9kyzDEDSs1lFeITes8Ft1TCe+kz6qVGdxGL8RXKyrTYSTZerWVGufUshS+F45xVWkleS0HXUgltdevxKAeSERh6eoJXGgto8diF53y8r4Uqg0iEYwsGpFxxMKk4rqoOo2QekynjFMFoZU8UvcRiLIUAAIarWV0YlbIPqkGURhKxJVdJkpzl+BG6fZCylR53xAXj6zkxqYQFV4jC+FNGSTM7lZm8YJITXAvhqFr4J07K1lAgQtFp7EtF1RwVQMrm0HLu6IVdaXYjYNimlZ7NaNXgTC1TxKDxWHc60LXCSRE6GH/jdrG0KhqTqDhG83aOAudlsW1Jp+CYdtO6zfZDL2BzxUdpsCOpB/VbLEQBbbYeSbLJLC5mjD6mJmFzDzTWnUbUbAB6jdL8S5VYfEmm4OBII5fVcnpM6jJ7bef/Pvc2zg2hpXxDmfwT7IStnVVv8A6iPOfyR2BrPqtJA2N9tyi+4dsfqJ8ua6rxzyx1YptJ/Bf7KE1F1JfyZbEdoKxtOnySx2LqvdGpxnqVpsZRpuIOm0xMRMffVe0aDA0lrADxsPgVj/AOOyyncsl/X7/cv/ABEIraJjM0wLi86Wufp0gkAui3GNkjzmg4NOppHmCPmtyx+JLjooucy8Oa0mZv05n2Cue7FAS+hU08fA/wCIBPyXVjCMff6GBSptnyWpR2Xj6LosvouJy7DYjYCm/g5oABP9QFj52KU1sr0EscLj7kJc03W3AJztbGey4uG6aYxxLDCvfggF3cmIWeE/VbKGjIPFSVy07svXLd3BdQ+DwourBKv25cMTK868Z0FYfUqheUsVpSqtiEJUxSixDUaR+PBUQ6VnGVXTKNZiyEe3XBGhniqoASatirrsTWLlPLMqdUMmYRjBR3ZNkSp6nBeDL3m602AyjTYpicvHJS2VOZlMJg3BOaNNwCY/sIRDKCbkqk7BKUxdRe4o80womgmoroVGTwUKbE4GHC8/ZZ4J6b4BpFZpLjh7JqcIRwVZpotOqkTSJxRhVl4nZODhwV6zBNUUVQukpymo0OLnjwtaSbTtBsp1u1bJvSdHOWn4W+aNp4Pw1AOLHAecWWUxOFhskn1tA9t1RmctKiuDRibgtjT0MypVrMdf+U2Ptx9Fa7Cy4iw8+USsAJ3BuLgiVpMiznURTquEx4XnY7AB3XqscYvGvSrt/I2Y86k6lsbDL6bWQ1r7ncg3EjpaPVF1MBTiQ+87kjbkBulvdiPxAffRCVpIcA/+03ta9j1ldjD1eiGiUEl4t/7JLHbtMe4nCMgPLhEWuI9kkxuLgmNl5SqzIkwENVuDzVv45ZoJx9/rQva0sll+f4hrGsBbDQADFz8Ue7tDVFyQeYgX90jYyF7VaShHq5pcmBykV9psxpOdTrt0gl2iq0biY0u8r/7VeMp6w0ncWniR+kfFI+1WGgNI4g+7TI+aeUX6qbXcw0+8fmVblnripe63IU/sKk/CgXsjQ5V1TIhZW4vkDFznNnguVdXC3K5aU4e5TuZ7E0YEoAYqLJ+7BudaEFXySFhTXk6cZLyBV8QIQtMOOyc4bJ+YV7ct0mIU2S2JrQrbWIEQqu9cStEMqJ4Kt2VwdkBe4L8IQN1osrzBjbJb+wKo4JwNkrSYjlZsW5k1Xf8AIN5rJ0sM5XtpuS00K2aM4wKLsaEmaxykGEooRsNfmF0Rh8eCYSkYdX4bCuLhAVkbb2ArNhgsMHCYR7ME0cFRljNLQCj9S7uLHFRWxakKsxYAEleVpMYBF1lsU+HGFh66NOxZEgr6aDbUReBbqcAdhc+S563dIrSt0PcpoQ3URcrPdu8SQGMAsSSSN+g+B9gtAcYG0yR/j1SvH4UVJ13B29uC2dVmWPBohzsbO1qVGDDLA25bX6oirhg2gCRDiTB4lpuDfYWRmZZU9lxL2AbwPCOoHzReGy81W0y4DQADuZtaNtiAuPBqn52KlCWqqH3Zmlqw9Nz7uM3O5uYV+NpCLNiD7/d15RxQa2LWiBFlZWcHUyR1MdV045ME8OiNXRpUZRe4lpkB5Gw5dDspvHDl9hZPMs7qOd4fDERxNupVGHz3ENdqc4OabGQLR5RH6Ln9OnGLXi7Xy+6Dkzxs2DQFF5CX4LNBVDhGl7dxMgjbU3mNvdWl60ylvsYMqSlsLe1oBpNPJ3zafyCuyd04ZnlHsCPoge0z/wBw7oR9Vd2YdOGbPP5k/mtWKV418xfA1dsoByArYuyE/bSsbTZXY5kLkgdmBXibSyWadmH6KVXCg8ExY8TC58IrEq5L7F9HCAKp+FvKOeCoaoUklwCyllKOCprUSTsjqTwp1YQpNcksWuwohRbSCMLCVH9kKmj2BYIaamKKubRMq51IqaAWDmiohgCK7tc3DoqDbJZUxjSjaWIa1CmlC8LE8ZPGTUx7hszbC7EZsBsluAyqpUuLN/mP0HFN6WQUh+JzneUAfU/FbYZ8047KviWLWxNiMxc5B6lpnZFR/rH+Q+oQVfImgyHn/IfUfksmeOVLVN/f6g7U2Jy1XMqFrYG7t/L7lXVsC9vCRzbcfoh6lYUvx77RxJ/ij4rn55SpRXnay/pYJScpeBnh2eEF3HYLyqSTvZZ3Mu0FTUQ2GCLcTtz4FKHZlWJk1HTIO8D4eSfJKKSS3+JZ31ZuNJA8QHXkfvkvKcu6NCS5Hi6lWQ9xIkEE7gXm/EJ9VOkABVwjrty/JH6t+3yLlK0q5ZJrGt4KuviBcAdFWXWPSFUDKvebTGsSSRNF8nz7M6FVjiHGb2m4PUSlL6p26zHVfS8ZhGvBDhIP3bksfm2RuZ4my5vE8RHPp1WfDnSemWxmy9O1vHdAWDx58LxYsOk9QNvQt1D0WuDtTQ4bEAj1WGw7dxx39W3+QK22QjVQaDu0ub7G3wIWx8bGWS2FXaQnuSOZ+hP0RmQDTh2Dm5vxKY43BgsdLZkWnntI9CUJTt3NIcXFx6MY0n5lq2Y8bUI35siWyF9VhKHdRKfdwFS7DhY78lVCA4YrxaH9iC8Rtgo0wpheOZdLquavbJLCGjiQqv8Am3RJYb7CL+q2vpWa+0xvC87oJEc9qTZnuE3wNR7mBxG/IbIvpWydpnooqxtGVGtYEieq7LSXHWQdJHhH1Rj0SRO2Wd1C4tVlU38yrnYbqn/CMXQAPauRVDBkgElXnCBL+Cl7k0CsG6sKKrU4e0RwJKFxNYTsfQShHo5LyTtsqci8twGvxO/CDEfzHl5IfDwTfVG5twT7BvIZqNp/COTeHvuqXhrIoP2v5L4jww16mEVKwaItbgNh0Qb8W4i0Kpwnr1+9lYGQtOtvjZGjSvJAVXdUVTxU2Itz+pHBDOC5o4TZKpyiFpMtr0w0gjYrFZ6/XV1kgNaLDmb/AKLcYu9IkcBI9F8xzPF3I5Ej1hcfrcPazaYfle/3+/1I5XDcoxuInhMxE+f0gIariCBFrTvf4KDSXQ0Ak8hufRPMt7P/AMdc+GxDBuTYw48uEfZp9MfzMzrHKT9KGXYxh7o1HTLjx/lGwHTc+qeuqTdUZYR42i1zHkdlaArXkbwxrh39bNijpbXsShed0vCV4X3F+G3BPBRfJHZ45iofSV5coFqz5IKW1Dp0L8P2WoVKhMFjgA6QQBM3BG0W+JV2By9tF5pEl8NBkENktlptfhp9uqNpOu4i+wHpv81S7AVqlcd0ASaZu4wGhzhq24y1d3p8UNC28mLIlbB84xLQOQAgAXj+kcyfjKEo4Q0297UEVaoAazjTojn1cfktA3K6OH8bj3+IFwCYaw9G8PMyVncRiKhcXVPE4m8iPbotOXFOSdc8fJFLg2eFQqNKliKxaJ0EA8d1S3CVXQW1N7w5qwPocjXgTtMlrK5FtpwILTPFcp+Aye6J2mPq1JmrxEOdwaNh1j6qFel/KBqPqry1oJgAcyI281ZRZIBA3XYovsGp4NpFx5o6nSAEC3QKbKcKvFV9MCPE4w0cz+QRoAFjG63Ck0eEQah6cG+qLLIFh6cgup+EbSeJ5niVCpXbxlAJHQP1VpsIH3KGrPadivGkXI4/RQgaLDyU2OQD2OIvcH73V9DwiTsAT6IgBu/11asbM0tnrEn5hc4meCFyFhNJ1Y/+57ngHgJhvwA90Q6oNjuggnsucdFrkDrBN/gmOO3A+CEwkSPMIrHEz0WXPBLVLy0l+7LIPhFTTz+iFzCsQ2yJaD/te2CyTg5wcbq/JcnTsrw7jpBmZHEQpwfP4rwm1l7h2Euj3UriKBfLL8V4aJm1j8ViBk1GrUJc5wdxAIEzxEjotF2ix38IPmse7FRVLp2gBcfr8+vqWsfEVp+ZowYtUHq87mooYalTADWhsCLC8dTudzuq6jxKWUsVKMbcb/Bctzlr4X38y3QkixlRrHhwO+/kmuIEgEbJQQPdW4fFOZ1by/iHlzXQw9RFasU1Sft4Kp426kuQpQcVa3EMeLbx6qp1PqtPblXo3XwK9XvseTK8c+AXHgvC8N3KhTDnnVsBBAO5PAxyTY8T1K/ze3/b/kDlt8Blh2FjAHC5ufMmd/ghsO8/iaTJ1AwSDGsmJHDZFOxIDYN9Ij2VGFpEMEevNdvAlaS4SM8hdistM6qZIPKVGhmX8FVkEcT+aZNa6b7courhhmvEOaPVaxGDtrMcIMffVDl0HaY26LzF5ZUpCaX7xo3pn8Uf0n6KjC1RU/CCCeBs4HkQUQUGB46Ll5+zHiL9DC5QAzaznty/NGU/RQpMAC7VO0Rx2RIdVrBoLnGANyhaUl2t4hxkR/IybDz4n9FUaoqHWfwMMUx/O8WL/wC0XjyJ5KwDcTx3vxQe4S19QR5+6rdcQL+a8ZJ+/h0UMVVLWkgTAJA+UnkoQ7uYJgj8uv1XtWoGU3O1NZAsSJ8rKDBpaZjmfPmfy6KVaA12uDYkgxEcZ9kAMzWF7SVaUmph3M1f+6m0FhMzL2tNxflK02EzfD4hop1IaagIEOGh/PQ9pF+lj0WczLFYCjDyx+psGaYePOwOm6mMvo1PE3DtOoBxDaop1ATcWaSx56TZU6XDh/oVtaeDatwFMMDBIaAA2DNgICpdl1Ju7XOFr34c4hYnB9oK1AGnTqNkOjusWBTcB/RVZLXhHv7a4hr26sM11O+o0agqn0i3um7yrf8Asms1j2Ma2WM9hf4qpjmvAnce6ryvN6NdpNIm34gbOaeoKqxlZjBqd4T/ADNBI9QEJ7rUt1+w8We1gRaLffFeUWT7IE9pWNs+D1BkHqEPX7X0x+ESubPP08ZeqT+VOzWo5GtkOKeGdxsEPmmaNpjSyJ6LK4ztlqmHAeSTVc8DuMnkLlYs3WTcXDBFq/L5/T2LY4XdzG2OxMzxJSXMsJVpPAqNglocPJ3+imGFDm6cQa1OmAbFxETyBIMnyTOrjcJixofWDHNkNqFoDTziXCR6BL0/+PrG7/MSfVxjJLwZ7B48Tpm6cUcVtdTZ2Jc8aqNajUadnXHyBV9DsriGkA6CR/WL+6TL/jcvKi/5HXUQfknTqW+9l3ewZTWtlLu7bbS6IcCRBPMGUgxFCtTJ1U3xz0kj3WTqOiywldMaGWMvIa3Sb7FWCkeLnJEcZG4jzV9DOYsLjkhh2dTiSSfgeCg3hvzmSvSyOPuhKObaohnrKsdiCTf4Lrw0V6f6MzvyXPJNuLvomTXAACDbik7u8EFrZcDLWnlBgu5C8+iZ5a6o0TVqMBPIGPQ7Lo9LKrtcmbJPei0VOCm0tIsfzU6rnD8IDxx1QD5hxsoVaI3sJ83e8Bbda8/f6lepE2VPVD4/K2ViKgJZUb+F7d/Jw2cOhUDTM6v/ANC4PmrsOeU/flwRTsb5Ac4sWNJryP4g5oDusG4XJn3h+5+i5GiWTdXB8j1S2vi+8qdxTMAR3zx/ADPgaf5zHDYSd4XmfZhth6f/AHVfCI/gad3kgW2+qIy/BsosbTbJ0iXOO73xBc7r+iDCWlo4RDQGtEWBiNujfgSogxwn7/2VX3gJEbNJnlOwHob+YCm58mAON/IcPkoAiSQ3lPHqfPh9AhTU1vDRs1xLidiGtmPIOLfZF1LAzwk32FiSUPl2Gc1jQ6C+PERtqJ1O48/ooEvaLi27jPle59R8V5WZJtxvFzMG5PQTtxU3NiOPCOZgSTyED4rqLXanuJEGA0AcAJJJm5v8AoAGpZUwiHCRw9ABJ6yJ9uSyeR5WyvjMY/T+6aGNpw4g6jIJAaQW2Zv16Lb5hihSpPqbaWmP7jZvxIWd7BUYw76pH/bVc6b3a3wg3/tKD5oPgqxeV4gANp4h+kEQyq1tZkHYGQHkf5JQ7LqlOsHnC4Yg2PcufQeXQTa/QiJ5LWPxbNUEiDtaPmqK1Jr4E7FpB4BzXagfcD4pHCLBoXsZ+lWZTe6o19TCVRIiqC+m60walxMdUyb2sxGgE08LVHEsxFOXD+0uEE8kfVp6n95Ny2IvG5I+bkFi8ko1QddKm6Sd6YJEwLH0n1SdquGJ264YlzzMqjxqp4Gk4Dcd4ys6f7KTvzSbK+2uIw1SXUwJGnungUmj+1kjSiu1nZShRwlWvRZ3VWmNTX03Op7ET4Rb0T2rl1TuqTnP74900vbWaHtcdMm4Ac3jxPDdL2WnaI4y9yLO34IBq4VurcFpj6H5whc77YNqjQzDtaTHic1lQjyFgPVJqmXUG1HasLUoR/HhyXsueLZB6xBVLuzNKsXClVZUO4h/dP6+HY+UDbdJKEuH5Edo9q5k9z5ce8cBcubEDk0TAHQKNTFucHBo0udbUQBA28JgAel0DU7FODZ/eSOBLnSOhaSENieyNbRrbUcG/wBzj09Eun4i+l+TW9jcU+hW7sPJZp8Q2vIgj1K02dY/wh4cQQbfP6L532SyqrQD67nmHeBom9ruPi9AmWa5lUdppjien3/pO9GhrSNpTTPoGIrB9N0uN2zwsYkKvJccHUhLnWJG48+XVYrGZtUax3i4QLjc2QNDNDTp+OqG8T4vvkFY3HXai+A6d+Df4PHNFZ9PUSN4J22/NRzDFUGVGeBp12IIB4i+3X4L5cztCwOc91cS7gCXECenohavaAOeHfvXR+EBjvck2QUU41oCotcH1/McbhqbNYaAQRbeRMbKT80oOpa2nSdOoCekwQvi+KzWs8gdxUg7AkCSBx9ipl2LfDRSDQbXqfA2sm0rf0IdxbPsuBzeg6nrs1xBk7GRafghMD2npvpnvNJuRc7j1XzFuV41wjwMGxABLo91LHZHimsaW1NTQfG1oAdpPFm8neyKtVsvv9CaDfZZ2ta1jgXAgOOnjZB4DtsGOfclrneAAdTt8FjG9mnOaP3z3NP4SDpBHk1WUuylOxLSSOJJJny3lFalXwIoG+ybM8XUqPc1jqdNxmagLYF5LWG5Wga6DJ9D/rgsBl+DdR8TatRrRuJcQ3hMHhz/ANrS4HGPFiRM3/q6jr0897S6YVGh+areM/FclRxXmOgdA9pELkbCHZJhHtDqtWO9q3Ox0t3DQR7ouq8xAN3EAHlxJ84BXLlCHggCB5DoptOkdeC5ciA87sRHqep4ellYGwPv0HyXLlCEov5CPkT9PiuYb+/qbfkuXKEM/wD+QMSWYXSN6joHoCR5XhM6GDaykykPwtaGiJGwiY4c1y5DyHwK6jAx53mRHidtPFE09M7Rcar222HRcuShPWtgm5mfqYXpaRrvaQev4W/kvVyZAEPbWThKviMaXEj+YCIHRaHKTOHpzfwDf2XLkFyR8AmY4QEahb/SDOXsqUy1zQQeYG8z9Vy5EAIzKg1gDHPpmb6HuANr22+CjVpVmAhrqbxO1Rgm4Fy5sXk8l6uQcIvlCuKfJks2OY1HuGmk1tOACDIgiQQ2yVUsrxZMurQTxDW/WY2XLktUWJKi+p2TqPu6tVP+QHwH3ZR7M9nGd7Vo1Wh7mGdRAJLHAEffmuXKMiNdX7PYemwOIAFrgbGY25InDZVQcAQBfax4bhcuURA6llNONOkcweIvzXr8rbGwheLkQHv/AB7RuNttreqvGFbAtwg+S5coQCfghScXD/rN3N4A/wAwHz9Cuq0G7jj5iQbg/quXIBIsotuLt5jiLc272HqvW4eBbblsIEXbfhA+i5ciEofjzPD1n6ELly5QNH//2Q==;" vertex="1" parent="1">
                    <mxGeometry x="-40" y="336.64" width="250" height="166.36" as="geometry"/>
                </mxCell>
            </root>
        </mxGraphModel>
    </diagram>
</mxfile>